<svg xmlns="http://www.w3.org/2000/svg" width="102.984" height="102.985" viewBox="0 0 102.984 102.985">
  <g id="money-bag" transform="translate(0 0)">
    <path id="Path_3408" data-name="Path 3408" d="M39.424,169.6a29,29,0,0,0-3.2.12h-.181C16.253,171.593,0,190.38,0,211.318c0,24.318,22.588,27.154,39.424,27.154,16.715,0,36.205-2.534,38.921-22.507C81.18,192.552,62.6,169.6,39.424,169.6Zm0,0" transform="translate(0 -135.488)" fill="#289976"/>
    <path id="Path_3409" data-name="Path 3409" d="M234.921,215.965c-2.715,19.974-22.206,22.507-38.921,22.507V169.6C219.171,169.6,237.757,192.552,234.921,215.965Zm0,0" transform="translate(-156.576 -135.488)" fill="#77d1b5"/>
    <path id="Path_3410" data-name="Path 3410" d="M133.029,10.017,127,28.321H97.187l-6.034-18.3A2.908,2.908,0,0,1,91.514,7.3a3.146,3.146,0,0,1,2.474-1.267h9.594a9.016,9.016,0,0,1,17.017,0h9.594A3.146,3.146,0,0,1,132.668,7.3a2.908,2.908,0,0,1,.361,2.715Zm0,0" transform="translate(-72.667 0)" fill="#289976"/>
    <path id="Path_3411" data-name="Path 3411" d="M216.939,10.017l-6.034,18.3H196V0a9.082,9.082,0,0,1,8.508,6.034H214.1A3.146,3.146,0,0,1,216.577,7.3a2.908,2.908,0,0,1,.361,2.715Zm0,0" transform="translate(-156.576)" fill="#77d1b5"/>
    <path id="Path_3413" data-name="Path 3413" d="M343.441,278.034a6.052,6.052,0,0,1-6.034,6.034L322.12,290.1l-15.086-6.034a6.034,6.034,0,0,1,0-12.068h30.372A6.052,6.052,0,0,1,343.441,278.034Zm0,0" transform="translate(-240.456 -217.29)" fill="#289976"/>
    <path id="Path_3414" data-name="Path 3414" d="M427.321,278.034a6.052,6.052,0,0,1-6.034,6.034L406,290.1V272h15.287A6.052,6.052,0,0,1,427.321,278.034Zm0,0" transform="translate(-324.336 -217.29)" fill="#289976"/>
    <path id="Path_3415" data-name="Path 3415" d="M343.441,338.034a6.052,6.052,0,0,1-6.034,6.034L322.12,350.1l-15.086-6.034a6.034,6.034,0,0,1,0-12.068h30.372A6.052,6.052,0,0,1,343.441,338.034Zm0,0" transform="translate(-240.456 -265.221)" fill="#464646"/>
    <path id="Path_3416" data-name="Path 3416" d="M427.321,338.034a6.052,6.052,0,0,1-6.034,6.034L406,350.1V332h15.287A6.052,6.052,0,0,1,427.321,338.034Zm0,0" transform="translate(-324.336 -265.221)" fill="#464646"/>
    <path id="Path_3417" data-name="Path 3417" d="M343.441,398.034a6.052,6.052,0,0,1-6.034,6.034L322.12,410.1l-15.086-6.034a6.034,6.034,0,0,1,0-12.068h30.372A6.052,6.052,0,0,1,343.441,398.034Zm0,0" transform="translate(-240.456 -313.153)" fill="#289976"/>
    <path id="Path_3418" data-name="Path 3418" d="M427.321,398.034a6.052,6.052,0,0,1-6.034,6.034L406,410.1V392h15.287A6.052,6.052,0,0,1,427.321,398.034Zm0,0" transform="translate(-324.336 -313.153)" fill="#289976"/>
    <path id="Path_3419" data-name="Path 3419" d="M343.441,458.034a6.052,6.052,0,0,1-6.034,6.034H307.034a6.034,6.034,0,0,1,0-12.068h30.372A6.052,6.052,0,0,1,343.441,458.034Zm0,0" transform="translate(-240.456 -361.084)" fill="#464646"/>
    <path id="Path_3420" data-name="Path 3420" d="M427.321,458.034a6.052,6.052,0,0,1-6.034,6.034H406V452h15.287A6.052,6.052,0,0,1,427.321,458.034Zm0,0" transform="translate(-324.336 -361.084)" fill="#464646"/>
    <path id="Path_3421" data-name="Path 3421" d="M133.24,127.034a6.052,6.052,0,0,1-6.034,6.034H97.034a6.034,6.034,0,1,1,0-12.068h30.171A6.052,6.052,0,0,1,133.24,127.034Zm0,0" transform="translate(-72.696 -96.662)" fill="#77d1b5"/>
    <g id="Group_1205" data-name="Group 1205" transform="translate(39.424 24.338)">
      <path id="Path_3424" data-name="Path 3424" d="M217.12,127.034a6.052,6.052,0,0,1-6.034,6.034H196V121h15.086A6.052,6.052,0,0,1,217.12,127.034Zm0,0" transform="translate(-196 -121)" fill="#289976"/>
    </g>
  </g>
</svg>
