<svg xmlns="http://www.w3.org/2000/svg" width="119.681" height="94.333" viewBox="0 0 119.681 94.333">
  <g id="noun_group_of_people_566435" data-name="noun_group of people_566435" transform="translate(-5.053 -19.597)">
    <path id="Path_3991" data-name="Path 3991" d="M99.618,34.1a50.751,50.751,0,0,1-26.955,9.274c-6.924-.364-11.893-4.278-8.605.533S78.165,49.8,78.165,49.8s.74,2.6-.761,25.325,6.144,1.012,8.037-7.817S91.32,85.292,95.888,83.235,93.476,47.3,93.476,47.3C101.756,40.288,112.456,24.823,99.618,34.1Z" transform="translate(19.162 3.841)" fill="#77d1b5"/>
    <path id="Path_3992" data-name="Path 3992" d="M75.25,36.638c4.2,2.734,7.876-.9,7.876-.9s4.593-5.613.49-8.454-8.727,2.164-8.727,2.164S71.051,33.9,75.25,36.638Zm6.715-5.821s-2.614,6.6-5.922,1.4C76.044,32.216,80.5,32.008,81.965,30.817Z" transform="translate(22.555 2.252)" fill="#77d1b5"/>
    <path id="Path_3993" data-name="Path 3993" d="M66.778,54.629c-6.962,1.568-15.938,2.154-23.607-3.623s-8.486-3.163-8.486-3.163c-1.36,3.927,8.9,15.531,8.9,15.531-4.992,11.151-6.733,20.987-7,33.187S40,101.2,41.042,97.625s5.675-9.7,5.675-9.7c5.219,33.86,8.581,7.762,9.546-1.359S61.2,63.642,61.2,63.642s14.458-5.949,14.339-8.37S73.741,53.061,66.778,54.629Z" transform="translate(9.754 9.142)" fill="#00aa95"/>
    <path id="Path_3994" data-name="Path 3994" d="M52.648,48.715C57,51.1,61.039,47.278,62.217,45.121s2.848-7.656-3.864-9.081c-8.445-1.794-8.735,7.615-8.735,7.615S49.794,47.149,52.648,48.715Z" transform="translate(14.732 5.36)" fill="#00aa95"/>
    <path id="Path_3995" data-name="Path 3995" d="M51.915,42.061c4.565-6.178-1.315.109-14.332-.254s-8.074-1.017-8.074-1.017a115.059,115.059,0,0,0,10.514-7.027c2.922-2.482,4.1-5.284-2.259-2.527,0,0-8.022,2.044-13.928,1.723S14.417,40.21,12.791,45.59C7.862,61.9,3.157,78.266,5.827,78.843s6.6-8.151,9.211-12.75,2.659.374,1.891,11.381c-.432,6.193,1.977,11.072,6.2-3.967s11.139-22.9,11.139-22.9S47.351,48.239,51.915,42.061Z" transform="translate(0 3.471)" fill="#464646"/>
    <path id="Path_3996" data-name="Path 3996" d="M23.895,32.547a6.329,6.329,0,0,0,6.442-5.2s-3.854,2.123-6.615-.278c0,0,3.956-.1,6.478-2.458,0,0-.168-5.374-5.633-5s-6.457,6.925-6.457,6.925S18.212,32.629,23.895,32.547Z" transform="translate(4.316 0)" fill="#464646"/>
  </g>
</svg>
