<svg xmlns="http://www.w3.org/2000/svg" width="101.5" height="95.156" viewBox="0 0 101.5 95.156">
  <g id="traditional-medicine" transform="translate(0 0)">
    <path id="Path_3425" data-name="Path 3425" d="M62.862,93.987v59.473a1.487,1.487,0,1,1-2.974,0V93.987a1.487,1.487,0,1,1,2.974,0ZM39.874,99.828A1.487,1.487,0,0,0,37,100.6l15.393,57.446a1.487,1.487,0,0,0,2.873-.77Z" transform="translate(-29.626 -74.162)" fill="#464646"/>
    <path id="Path_3426" data-name="Path 3426" d="M36.705,4.956a4.94,4.94,0,0,1-.394,1.939,19.852,19.852,0,0,0-1.589,7.773v16.06a2.974,2.974,0,0,1-5.947,0V14.516a20.264,20.264,0,0,0-1.613-7.68,5.493,5.493,0,0,1,.957-5.51C32.206-1.788,36.705,1.059,36.705,4.956ZM10.35,20.3a19.854,19.854,0,0,1-.477-7.919,4.94,4.94,0,0,0-.122-1.974C8.743,6.642,3.661,5.056.518,9.122a5.492,5.492,0,0,0,.5,5.57,20.262,20.262,0,0,1,3.546,7l4.2,15.66a2.974,2.974,0,1,0,5.745-1.539Z" transform="translate(0 0)" fill="#289976"/>
    <path id="Path_3427" data-name="Path 3427" d="M254.452,144.408a51.049,51.049,0,0,0-6.116,7.4H256.5a.991.991,0,0,1,.991.991v2.974a27.739,27.739,0,0,1-13.629,23.894v3.86a3.965,3.965,0,0,1-3.965,3.965h-22.3a3.965,3.965,0,0,1-3.965-3.965v-3.86A27.739,27.739,0,0,1,200,155.77V152.8a.991.991,0,0,1,.991-.991h29.241l1.652-1.652a51.037,51.037,0,0,1,7.779-6.377h0a51.037,51.037,0,0,0,7.779-6.377l6.239-6.239a3.965,3.965,0,0,1,5.607,0l1.4,1.4a3.965,3.965,0,0,1,0,5.607Z" transform="translate(-160.352 -104.227)" fill="#289976"/>
    <path id="Path_3428" data-name="Path 3428" d="M249.561,240.991v2.974q0,.316-.007.629a23.861,23.861,0,0,1-23.945,23.16H213.454A27.736,27.736,0,0,1,200,243.965v-2.974a.991.991,0,0,1,.991-.991h47.578A.991.991,0,0,1,249.561,240.991Z" transform="translate(-160.352 -192.422)" fill="#289976"/>
    <path id="Path_3429" data-name="Path 3429" d="M117.505,333.638h0a5.043,5.043,0,0,1-5.043,5.043H65.043A5.044,5.044,0,0,1,60,333.638h0a5.044,5.044,0,0,1,1.935-3.972l23.709-18.555a5.044,5.044,0,0,1,6.217,0l23.709,18.555A5.044,5.044,0,0,1,117.505,333.638Z" transform="translate(-48.106 -248.576)" fill="#77d1b5"/>
    <path id="Path_3430" data-name="Path 3430" d="M109.576,347.544h0a5.539,5.539,0,0,1-.646,2.6H65.043A5.044,5.044,0,0,1,60,345.1h0a5.044,5.044,0,0,1,1.935-3.972L83.391,324.34l24.05,18.821A5.565,5.565,0,0,1,109.576,347.544Z" transform="translate(-48.106 -260.042)" fill="#77d1b5"/>
    <path id="Path_3431" data-name="Path 3431" d="M107.4,437h0a11.9,11.9,0,0,1-16.821,0h0a1.982,1.982,0,0,1,0-2.8h0a11.9,11.9,0,0,1,16.821,0h0A1.983,1.983,0,0,1,107.4,437Z" transform="translate(-72.158 -345.326)" fill="#464646"/>
    <path id="Path_3433" data-name="Path 3433" d="M0,411.895H0A11.9,11.9,0,0,1,11.895,400h0a1.982,1.982,0,0,1,1.982,1.982h0A11.9,11.9,0,0,1,1.982,413.877h0A1.982,1.982,0,0,1,0,411.895Z" transform="translate(0 -320.703)" fill="#464646"/>
  </g>
</svg>
